HIERARCHY
ROOT Hips
{
	OFFSET 0.000000 89.005402 0.000000
	CHANNELS 6 Xposition Yposition Zposition Xrotation Yrotation Zrotation
	JOINT Spine
	{
		OFFSET 0.116900 10.681000 0.373400
		CHANNELS 3 Xrotation Yrotation Zrotation
		JOINT Spine1
		{
			OFFSET 0.000000 13.840401 0.053500
			CHANNELS 3 Xrotation Yrotation Zrotation
			JOINT Spine2
			{
				OFFSET 0.000000 14.712700 -0.366200
				CHANNELS 3 Xrotation Yrotation Zrotation
				JOINT Neck
				{
					OFFSET 0.000000 35.415497 -3.314200
					CHANNELS 3 Xrotation Yrotation Zrotation
					JOINT Head
					{
						OFFSET 0.000000 16.899200 1.218300
						CHANNELS 3 Xrotation Yrotation Zrotation
						JOINT HeadTop_End
						{
							OFFSET 0.000000 22.206207 2.192500
							CHANNELS 3 Xrotation Yrotation Zrotation
							End Site
							{
								OFFSET 0.000000 22.314178 0.000000
							}
						}
					}
				}
				JOINT LeftShoulder
				{
					OFFSET 12.896400 26.716293 -4.548400
					CHANNELS 3 Xrotation Yrotation Zrotation
					JOINT LeftArm
					{
						OFFSET 19.027000 -4.857010 -1.718400
						CHANNELS 3 Xrotation Yrotation Zrotation
						JOINT LeftForeArm
						{
							OFFSET 24.179897 0.000000 0.000000
							CHANNELS 3 Xrotation Yrotation Zrotation
							JOINT LeftHand
							{
								OFFSET 27.156403 0.000000 0.000000
								CHANNELS 3 Xrotation Yrotation Zrotation
								JOINT LeftHandIndex1
								{
									OFFSET 16.441200 0.000000 0.000000
									CHANNELS 3 Xrotation Yrotation Zrotation
									JOINT LeftHandIndex2
									{
										OFFSET 4.821899 0.000000 0.000000
										CHANNELS 3 Xrotation Yrotation Zrotation
										JOINT LeftHandIndex3
										{
											OFFSET 6.386497 0.000000 0.000000
											CHANNELS 3 Xrotation Yrotation Zrotation
											JOINT LeftHandIndex4
											{
												OFFSET 5.188988 0.000000 0.000000
												CHANNELS 3 Xrotation Yrotation Zrotation
												End Site
												{
													OFFSET -0.178703 5.185913 0.000177
												}
											}
										}
									}
								}
								JOINT LeftHandThumb1
								{
									OFFSET 6.534897 -5.032593 5.900300
									CHANNELS 3 Xrotation Yrotation Zrotation
									JOINT LeftHandThumb2
									{
										OFFSET 3.818176 -2.204422 2.204423
										CHANNELS 3 Xrotation Yrotation Zrotation
										JOINT LeftHandThumb3
										{
											OFFSET 3.252098 -1.877594 1.877601
											CHANNELS 3 Xrotation Yrotation Zrotation
											JOINT LeftHandThumb4
											{
												OFFSET 5.251778 -3.032120 3.032117
												CHANNELS 3 Xrotation Yrotation Zrotation
												End Site
												{
													OFFSET 0.000023 6.780014 0.000000
												}
											}
										}
									}
								}
							}
						}
					}
				}
				JOINT RightShoulder
				{
					OFFSET -12.896300 26.716293 -4.548400
					CHANNELS 3 Xrotation Yrotation Zrotation
					JOINT RightArm
					{
						OFFSET -19.027000 -4.857010 -1.718400
						CHANNELS 3 Xrotation Yrotation Zrotation
						JOINT RightForeArm
						{
							OFFSET -24.179897 0.000000 0.000000
							CHANNELS 3 Xrotation Yrotation Zrotation
							JOINT RightHand
							{
								OFFSET -27.156403 0.000000 0.000000
								CHANNELS 3 Xrotation Yrotation Zrotation
								JOINT RightHandThumb1
								{
									OFFSET -6.591202 -4.852203 5.988100
									CHANNELS 3 Xrotation Yrotation Zrotation
									JOINT RightHandThumb2
									{
										OFFSET -3.818176 -2.204422 2.204423
										CHANNELS 3 Xrotation Yrotation Zrotation
										JOINT RightHandThumb3
										{
											OFFSET -3.252098 -1.877594 1.877601
											CHANNELS 3 Xrotation Yrotation Zrotation
											JOINT RightHandThumb4
											{
												OFFSET -5.251778 -3.032120 3.032117
												CHANNELS 3 Xrotation Yrotation Zrotation
												End Site
												{
													OFFSET -0.000023 6.780014 0.000000
												}
											}
										}
									}
								}
								JOINT RightHandIndex1
								{
									OFFSET -16.029404 0.000000 0.000000
									CHANNELS 3 Xrotation Yrotation Zrotation
									JOINT RightHandIndex2
									{
										OFFSET -5.213303 0.000000 0.000000
										CHANNELS 3 Xrotation Yrotation Zrotation
										JOINT RightHandIndex3
										{
											OFFSET -6.386528 0.000000 0.000000
											CHANNELS 3 Xrotation Yrotation Zrotation
											JOINT RightHandIndex4
											{
												OFFSET -5.189026 0.000000 0.000000
												CHANNELS 3 Xrotation Yrotation Zrotation
												End Site
												{
													OFFSET 0.236702 5.183624 0.001972
												}
											}
										}
									}
								}
							}
						}
					}
				}
			}
		}
	}
	JOINT LeftUpLeg
	{
		OFFSET 14.073000 -7.904099 -1.463000
		CHANNELS 3 Xrotation Yrotation Zrotation
		JOINT LeftLeg
		{
			OFFSET -0.109806 -34.073280 4.093200
			CHANNELS 3 Xrotation Yrotation Zrotation
			JOINT LeftFoot
			{
				OFFSET 0.109806 -29.899420 -6.319000
				CHANNELS 3 Xrotation Yrotation Zrotation
				JOINT LeftToeBase
				{
					OFFSET 1.551100 -14.988700 20.535801
					CHANNELS 3 Xrotation Yrotation Zrotation
					JOINT LeftToe_End
					{
						OFFSET 0.221200 0.570800 13.248301
						CHANNELS 3 Xrotation Yrotation Zrotation
						End Site
						{
							OFFSET 0.000000 13.262435 0.000000
						}
					}
				}
			}
		}
	}
	JOINT RightUpLeg
	{
		OFFSET -13.839300 -7.904099 -1.463000
		CHANNELS 3 Xrotation Yrotation Zrotation
		JOINT RightLeg
		{
			OFFSET 0.109694 -34.073219 4.093300
			CHANNELS 3 Xrotation Yrotation Zrotation
			JOINT RightFoot
			{
				OFFSET -0.109694 -29.899384 -6.319200
				CHANNELS 3 Xrotation Yrotation Zrotation
				JOINT RightToeBase
				{
					OFFSET -1.551100 -14.988700 20.535801
					CHANNELS 3 Xrotation Yrotation Zrotation
					JOINT RightToe_End
					{
						OFFSET -0.221200 0.570900 13.248299
						CHANNELS 3 Xrotation Yrotation Zrotation
						End Site
						{
							OFFSET 0.000000 13.262440 0.000000
						}
					}
				}
			}
		}
	}
}
MOTION
Frames: 8
Frame Time: 0.033333
0.092549 50.685837 9.217733 0.145869 0.070946 0.868561 10.430314 0.122355 -1.494250 -0.199253 0.213109 -0.355134 -0.199575 0.247826 -0.300159 -1.001765 -1.284122 0.469464 -8.883494 -4.326845 -5.321531 -0.000000 -0.000000 -0.000001 0.823520 -15.262020 -7.868747 4.746719 -21.216432 -54.862238 -0.000036 -62.197513 -0.000039 31.062970 4.315241 41.770220 -0.235311 2.798392 -26.913104 0.396829 2.121302 -21.189304 0.083127 0.984452 -9.653143 0.000001 -0.000004 -0.000003 6.610607 1.798179 20.801490 2.716391 20.172586 -24.389175 -5.537241 29.849528 5.070893 0.000000 0.000003 -0.000001 3.171093 -4.378725 8.782885 -3.950267 37.253382 63.733656 -0.000044 55.137952 0.000059 43.537292 4.741029 -36.277938 -9.383515 -1.613345 -17.604708 3.557070 -24.337028 34.656844 -6.607458 -37.497585 -11.174715 0.000003 0.000001 -0.000001 2.957827 1.012861 13.530004 0.472455 -2.045709 26.006736 0.059756 -0.744401 9.177798 0.000001 0.000003 0.000001 -88.309818 -8.292859 14.595930 82.348230 2.943570 -0.548436 7.635174 -6.775397 -8.229792 -0.103103 0.000004 0.000003 0.000000 0.000000 0.000000 -89.569762 9.732169 -10.611987 82.898067 -2.615223 -1.083699 8.622038 -0.177579 9.313946 -0.191616 0.000005 0.000001 -0.000000 -0.000000 0.000000 
0.090324 50.702263 9.191818 -0.200551 0.095864 0.927092 10.389017 0.105159 -1.507889 -0.270386 0.174603 -0.353819 -0.270810 0.211948 -0.295000 -1.036545 -1.283245 0.407271 -9.050897 -4.394594 -5.182539 0.000000 -0.000000 -0.000000 0.819137 -15.379651 -7.833412 4.898551 -21.637052 -54.284465 0.000029 -60.972614 0.000016 32.005799 4.765637 45.636459 -0.041008 3.097011 -30.224455 0.514088 2.401722 -24.160189 0.148293 1.311122 -12.905319 0.000000 -0.000000 -0.000001 6.429404 1.798802 21.137590 3.051805 20.216139 -24.664385 -5.693405 30.112446 5.462231 -0.000002 0.000004 0.000001 3.118393 -4.273546 8.514568 -2.729903 34.926258 63.351794 -0.000023 57.189416 0.000029 42.211447 5.293178 -37.240138 -9.477966 -1.678488 -18.016408 3.667948 -24.320557 34.963148 -6.565607 -37.620207 -11.184752 -0.000002 -0.000002 -0.000005 3.032539 0.777074 16.591706 0.585707 -2.262970 29.018434 0.108274 -0.999421 12.365682 0.000001 -0.000000 0.000002 -87.940024 -8.191962 14.584621 82.343900 2.920543 -0.546732 7.602269 -6.775544 -8.198466 -0.103103 0.000003 0.000003 -0.000000 -0.000000 0.000000 -89.233922 9.735631 -10.702906 82.954813 -2.548659 -1.085226 8.567098 -0.178132 9.266098 -0.191616 0.000005 0.000001 -0.000000 -0.000000 0.000000 
0.096831 50.758034 9.167843 -0.617554 0.125502 0.960126 10.274865 0.116925 -1.499843 -0.484404 0.168156 -0.327251 -0.484784 0.207897 -0.265112 -1.095110 -1.277469 0.324043 -8.877261 -4.489104 -4.968848 -0.000000 -0.000000 0.000000 0.825119 -15.585904 -7.649217 5.380872 -22.770309 -53.003378 0.000031 -59.503652 0.000055 31.114797 6.389461 46.645991 0.203971 3.444164 -34.296798 0.660022 2.703329 -27.436001 0.248883 1.691061 -16.743994 0.000001 -0.000001 -0.000001 6.114239 1.802266 21.794324 3.460465 20.356298 -24.949728 -5.818006 30.486252 5.861291 0.000002 0.000001 -0.000000 2.990856 -4.153920 7.778735 -1.577896 32.946968 62.949489 -0.000003 58.794405 0.000005 37.892663 4.886079 -35.595415 -9.625512 -1.848971 -18.842608 3.820733 -24.313373 35.506954 -6.485143 -37.907338 -11.207562 -0.000000 0.000000 0.000000 3.151259 0.518787 20.212939 0.726744 -2.500138 32.411478 0.183309 -1.295089 16.112105 -0.000001 0.000001 -0.000000 -87.456713 -8.068459 14.590756 82.313840 2.878396 -0.543434 7.542772 -6.774748 -8.133832 -0.103103 0.000004 0.000003 0.000000 -0.000000 0.000000 -88.748056 9.704437 -10.807051 82.967510 -2.480000 -1.086803 8.478139 -0.181886 9.226983 -0.191616 0.000006 0.000001 -0.000000 0.000001 0.000000 
0.108728 50.843941 9.118784 -1.167904 0.130713 0.948975 10.086299 0.150466 -1.489192 -0.840171 0.205192 -0.274180 -0.840365 0.246226 -0.210762 -1.166510 -1.275523 0.298647 -8.551637 -4.544391 -4.769148 0.000000 0.000000 -0.000000 0.837823 -15.716651 -7.366336 5.845541 -24.195184 -50.890510 -0.000001 -58.610796 -0.000015 23.862092 7.065123 43.191937 0.485895 3.791299 -38.701068 0.830214 3.008173 -30.850974 0.383990 2.087910 -20.840077 -0.000000 -0.000003 -0.000000 5.743119 1.803447 22.585996 3.900534 20.534947 -25.243385 -5.931515 30.906599 6.266629 -0.000002 -0.000001 -0.000001 2.803186 -3.788131 6.846648 -1.114339 31.321731 62.294938 0.000017 59.806960 -0.000022 27.023631 3.381598 -28.575184 -9.791197 -2.063043 -19.838785 3.991905 -24.308512 36.150890 -6.388786 -38.263437 -11.235157 -0.000001 0.000001 0.000001 3.307323 0.270614 24.079887 0.889694 -2.739736 35.975317 0.284319 -1.603874 20.103557 0.000000 0.000001 -0.000001 -86.818698 -7.945792 14.648558 82.258379 2.806168 -0.540038 7.483015 -6.771523 -8.032669 -0.103103 0.000003 0.000003 -0.000000 -0.000000 -0.000000 -88.073759 9.601471 -10.892884 82.906148 -2.427152 -1.088113 8.402301 -0.187641 9.172544 -0.191616 0.000005 0.000001 0.000000 0.000001 0.000000 
0.119291 50.923164 9.017950 -1.855610 0.103848 0.905456 9.838771 0.190428 -1.488435 -1.304876 0.264673 -0.219022 -1.304813 0.306536 -0.155343 -1.286577 -1.290285 0.395305 -8.424103 -4.532526 -4.627954 0.000000 -0.000000 0.000000 0.853424 -15.650373 -6.979644 5.874682 -25.316228 -48.173635 0.000032 -59.152621 0.000027 8.041948 5.667435 39.267079 0.769809 4.084126 -42.809362 1.011883 3.292847 -34.155566 0.537353 2.452930 -24.709989 0.000001 0.000001 0.000001 5.426921 1.798697 23.245943 4.310561 20.669908 -25.537594 -6.061343 31.280036 6.673750 0.000001 -0.000000 0.000002 2.600173 -3.077098 6.041933 -1.485275 29.654294 60.872019 0.000008 61.467864 -0.000002 11.738778 -1.052028 -19.744648 -9.930740 -2.234055 -20.656707 4.146254 -24.297773 36.697459 -6.307681 -38.551726 -11.256746 -0.000001 0.000001 -0.000001 3.476144 0.064333 27.731254 1.059824 -2.959725 39.396634 0.399424 -1.888758 23.879246 0.000000 0.000001 -0.000000 -86.075629 -7.832856 14.749534 82.181109 2.724816 -0.538291 7.479028 -6.767718 -7.905731 -0.103103 0.000003 0.000003 0.000000 -0.000000 -0.000000 -87.282537 9.441317 -10.950076 82.780923 -2.366502 -1.089825 8.398716 -0.191593 9.084495 -0.191616 0.000005 0.000001 -0.000000 -0.000001 0.000000 
0.126610 50.960052 8.865990 -2.603515 0.075360 0.878328 9.554455 0.223473 -1.502366 -1.837114 0.309597 -0.206253 -1.836835 0.352917 -0.142329 -1.437484 -1.329137 0.610553 -8.831228 -4.506820 -4.476115 -0.000000 -0.000000 0.000000 0.872993 -15.480718 -6.334965 5.240916 -25.779673 -45.260266 -0.000015 -61.972253 -0.000019 -11.163324 -0.448266 40.188253 1.015532 4.290023 -46.081432 1.188233 3.538445 -37.114886 0.683487 2.748002 -27.929584 -0.000001 -0.000000 -0.000002 5.255046 1.788775 23.558400 4.637367 20.696395 -25.819630 -6.225981 31.528877 7.073680 -0.000001 0.000002 0.000001 2.407150 -2.237566 5.342324 -2.142897 27.461698 58.295869 -0.000012 65.938107 0.000028 -0.923440 -4.956710 -16.505692 -10.015985 -2.287256 -21.035646 4.253686 -24.276502 36.986321 -6.266777 -38.662217 -11.264726 -0.000000 0.000000 0.000001 3.626777 -0.085883 30.762752 1.219205 -3.143476 42.389496 0.509785 -2.120491 27.034242 0.000001 0.000000 -0.000002 -85.342995 -7.716066 14.843480 82.088724 2.646919 -0.537765 7.562416 -6.765664 -7.767984 -0.103103 0.000003 0.000003 0.000000 -0.000002 0.000000 -86.521100 9.288582 -11.004430 82.649551 -2.296586 -1.090894 8.485182 -0.191040 8.970340 -0.191616 0.000006 0.000001 -0.000000 0.000001 0.000000 
0.131433 50.958527 8.694713 -3.343053 0.085631 0.918867 9.242040 0.240352 -1.535197 -2.424254 0.315109 -0.265090 -2.423891 0.360821 -0.200995 -1.490083 -1.382249 0.870702 -9.782821 -4.547351 -4.164404 0.000000 -0.000000 -0.000000 0.902947 -15.310757 -5.247794 3.743812 -25.654797 -42.188118 0.000043 -68.020071 0.000036 -23.491932 -11.617011 41.616694 1.184892 4.391561 -48.054523 1.340616 3.730886 -39.518368 0.792853 2.944833 -30.131701 0.000000 -0.000000 -0.000000 5.301508 1.775339 23.345197 4.835607 20.562042 -26.075811 -6.438493 31.587689 7.455307 -0.000002 0.000001 0.000002 2.210880 -1.506021 4.445062 -2.830262 24.584451 54.948312 0.000095 74.125352 -0.000092 -7.280151 -2.714906 -17.976585 -10.026563 -2.157865 -20.777912 4.289261 -24.241627 36.884797 -6.288733 -38.503726 -11.255924 -0.000000 0.000001 0.000000 3.728083 -0.178637 32.824752 1.348751 -3.279583 44.701587 0.593615 -2.277133 29.217896 -0.000000 0.000001 0.000001 -84.664129 -7.549148 14.867674 81.978294 2.591939 -0.536494 7.704638 -6.766994 -7.631349 -0.103103 0.000003 0.000003 -0.000000 -0.000000 -0.000000 -85.850567 9.212148 -11.112465 82.572732 -2.205523 -1.090336 8.605284 -0.187834 8.851077 -0.191616 0.000005 0.000001 -0.000000 0.000001 0.000000 
0.139680 50.952980 8.543798 -4.038777 0.151032 1.038938 8.886227 0.230445 -1.580976 -3.104643 0.266239 -0.366527 -3.104300 0.314819 -0.302804 -1.362402 -1.421987 1.063542 -10.798503 -4.662143 -3.629716 -0.000001 -0.000000 -0.000000 0.930427 -14.913780 -3.888517 1.097745 -25.498302 -38.413182 0.000100 -77.518153 0.000098 -26.714499 -18.469400 39.619486 1.212514 4.336606 -47.741431 1.439198 3.847039 -41.010119 0.815600 2.983617 -30.571520 -0.000001 -0.000001 -0.000001 5.749027 1.751385 22.165120 4.809214 20.131943 -26.294417 -6.746185 31.303997 7.815081 0.000000 -0.000000 0.000000 1.977194 -0.707242 3.207645 -4.530178 21.346184 51.918706 0.000216 84.896909 -0.000201 -8.585661 2.905781 -18.507284 -9.881467 -1.717471 -19.276216 4.198907 -24.181380 36.068040 -6.429859 -37.847325 -11.219542 -0.000000 0.000002 0.000000 3.725980 -0.200965 33.206303 1.416322 -3.346360 45.870816 0.613864 -2.312940 29.723419 0.000000 -0.000000 0.000001 -84.011361 -7.310959 14.804795 81.850836 2.563662 -0.533738 7.838031 -6.769327 -7.499876 -0.103103 0.000004 0.000003 0.000000 0.000000 0.000000 -85.237892 9.229497 -11.304428 82.566045 -2.084814 -1.088111 8.681614 -0.185780 8.749400 -0.191616 0.000004 0.000001 0.000000 0.000000 0.000000 
